<svg width="427" height="188" viewBox="0 0 427 188" fill="none" xmlns="http://www.w3.org/2000/svg">
<path d="M258.52 119.136H273.016L256.216 168H237.88L230.104 139.776L220.696 168H202.456L187.192 119.136H202.36L212.248 153.984L223.48 119.136H237.496L247.192 154.272L258.52 119.136ZM299.912 118.368C307.528 118.368 313.48 120.544 317.768 124.896C322.12 129.248 324.296 135.136 324.296 142.56C324.296 147.616 323.208 152.128 321.032 156.096C318.856 160.064 315.784 163.2 311.816 165.504C307.848 167.808 303.176 168.96 297.8 168.96C290.248 168.96 284.296 166.784 279.944 162.432C275.656 158.08 273.512 152.224 273.512 144.864C273.512 139.744 274.6 135.2 276.776 131.232C278.952 127.264 282.024 124.128 285.992 121.824C289.96 119.52 294.6 118.368 299.912 118.368ZM298.472 156.192C301.736 156.192 304.328 154.976 306.248 152.544C308.232 150.048 309.224 146.72 309.224 142.56C309.224 138.976 308.36 136.192 306.632 134.208C304.904 132.16 302.536 131.136 299.528 131.136C296.2 131.136 293.544 132.384 291.56 134.88C289.64 137.312 288.68 140.608 288.68 144.768C288.68 148.352 289.512 151.168 291.176 153.216C292.904 155.2 295.336 156.192 298.472 156.192ZM366.699 133.344C365.419 132.832 363.691 132.576 361.515 132.576C358.187 132.576 355.531 133.76 353.547 136.128C351.563 138.432 350.123 142.208 349.227 147.456C348.331 152.64 347.883 159.488 347.883 168H333.291V136.32L333.099 119.136H347.787L347.115 131.328C348.843 126.656 351.147 123.328 354.027 121.344C356.971 119.36 360.107 118.368 363.435 118.368C364.523 118.368 365.515 118.432 366.411 118.56C367.371 118.688 368.331 118.912 369.291 119.232L366.699 133.344ZM374.164 168V96.96H388.852V138.624L406.996 119.136H424.468L402.388 142.752C403.86 143.648 405.076 144.832 406.036 146.304L409.78 152.16C411.764 155.232 414.548 156.768 418.132 156.768C420.052 156.768 421.876 156.288 423.604 155.328L426.772 166.176C424.98 167.2 423.124 167.936 421.204 168.384C419.348 168.832 417.364 169.024 415.252 168.96C411.092 168.896 407.636 168.128 404.884 166.656C402.196 165.184 399.764 162.688 397.588 159.168L393.844 153.312C392.948 151.904 392.116 150.752 391.348 149.856C390.58 148.96 389.748 148.256 388.852 147.744V168H374.164Z" fill="black"/>
<path d="M50.592 99.84H65.664V168H51.744L21.504 125.664V168H6.432V99.84H20.352L50.592 142.176V99.84ZM101.854 168.96C96.4138 168.96 91.7098 167.968 87.7418 165.984C83.7738 163.936 80.7018 161.088 78.5258 157.44C76.3498 153.728 75.2617 149.344 75.2617 144.288C75.2617 139.168 76.3498 134.656 78.5258 130.752C80.7658 126.848 83.7418 123.808 87.4538 121.632C91.2298 119.456 95.4858 118.368 100.222 118.368C105.598 118.368 109.982 119.584 113.374 122.016C116.766 124.448 119.102 127.904 120.382 132.384C121.726 136.8 122.014 141.952 121.246 147.84H90.2378C90.6218 150.272 91.9018 152.32 94.0778 153.984C96.2538 155.584 99.2298 156.384 103.006 156.384C104.734 156.384 106.558 156.032 108.478 155.328C110.398 154.56 112.03 153.44 113.374 151.968L121.534 160.608C119.422 163.168 116.798 165.216 113.662 166.752C110.59 168.224 106.654 168.96 101.854 168.96ZM100.51 129.024C97.9498 129.024 95.7738 129.792 93.9818 131.328C92.2538 132.864 91.1018 135.008 90.5258 137.76H108.862C108.926 134.752 108.19 132.544 106.654 131.136C105.182 129.728 103.134 129.024 100.51 129.024ZM130.258 187.2V119.136H145.042L144.562 126.624C148.082 121.12 153.298 118.368 160.21 118.368C164.562 118.368 168.274 119.36 171.346 121.344C174.418 123.328 176.754 126.08 178.354 129.6C179.954 133.12 180.754 137.152 180.754 141.696C180.754 147.136 179.634 151.904 177.394 156C175.154 160.096 172.146 163.296 168.37 165.6C164.594 167.84 160.37 168.96 155.698 168.96C153.458 168.96 151.41 168.64 149.554 168C147.762 167.36 146.162 166.464 144.754 165.312L144.946 168V187.2H130.258ZM154.162 156.192C157.682 156.192 160.466 154.88 162.514 152.256C164.562 149.568 165.586 146.176 165.586 142.08C165.586 138.624 164.786 135.936 163.186 134.016C161.65 132.096 159.538 131.136 156.85 131.136C153.586 131.136 150.77 132.48 148.402 135.168C146.098 137.856 144.946 141.376 144.946 145.728C144.946 148.928 145.778 151.488 147.442 153.408C149.106 155.264 151.346 156.192 154.162 156.192Z" fill="#009400"/>
<path d="M146 0L101 79H132L162 28L192 79H224L237.5 55L252 79H284L329 0H297L267 50L254 27L269 0H237L208 51L178 0H146Z" fill="black"/>
</svg>
