<svg width="120" height="52" viewBox="0 0 120 52" fill="none" xmlns="http://www.w3.org/2000/svg">
<path d="M72.37 32.766H76.296L71.746 46H66.78L64.674 38.356L62.126 46H57.186L53.052 32.766H57.16L59.838 42.204L62.88 32.766H66.676L69.302 42.282L72.37 32.766ZM83.5803 32.558C85.6429 32.558 87.2549 33.1473 88.4163 34.326C89.5949 35.5047 90.1843 37.0993 90.1843 39.11C90.1843 40.4793 89.8896 41.7013 89.3003 42.776C88.7109 43.8507 87.8789 44.7 86.8043 45.324C85.7296 45.948 84.4643 46.26 83.0083 46.26C80.9629 46.26 79.3509 45.6707 78.1723 44.492C77.0109 43.3133 76.4303 41.7273 76.4303 39.734C76.4303 38.3473 76.7249 37.1167 77.3143 36.042C77.9036 34.9673 78.7356 34.118 79.8103 33.494C80.8849 32.87 82.1416 32.558 83.5803 32.558ZM83.1903 42.802C84.0743 42.802 84.7763 42.4727 85.2963 41.814C85.8336 41.138 86.1023 40.2367 86.1023 39.11C86.1023 38.1393 85.8683 37.3853 85.4003 36.848C84.9323 36.2933 84.2909 36.016 83.4763 36.016C82.5749 36.016 81.8556 36.354 81.3183 37.03C80.7983 37.6887 80.5383 38.5813 80.5383 39.708C80.5383 40.6787 80.7636 41.4413 81.2143 41.996C81.6823 42.5333 82.3409 42.802 83.1903 42.802ZM101.669 36.614C101.322 36.4753 100.854 36.406 100.265 36.406C99.3632 36.406 98.6439 36.7267 98.1065 37.368C97.5692 37.992 97.1792 39.0147 96.9365 40.436C96.6939 41.84 96.5725 43.6947 96.5725 46H92.6205V37.42L92.5685 32.766H96.5465L96.3645 36.068C96.8325 34.8027 97.4565 33.9013 98.2365 33.364C99.0339 32.8267 99.8832 32.558 100.785 32.558C101.079 32.558 101.348 32.5753 101.591 32.61C101.851 32.6447 102.111 32.7053 102.371 32.792L101.669 36.614ZM103.69 46V26.76H107.668V38.044L112.582 32.766H117.314L111.334 39.162C111.733 39.4047 112.062 39.7253 112.322 40.124L113.336 41.71C113.874 42.542 114.628 42.958 115.598 42.958C116.118 42.958 116.612 42.828 117.08 42.568L117.938 45.506C117.453 45.7833 116.95 45.9827 116.43 46.104C115.928 46.2253 115.39 46.2773 114.818 46.26C113.692 46.2427 112.756 46.0347 112.01 45.636C111.282 45.2373 110.624 44.5613 110.034 43.608L109.02 42.022C108.778 41.6407 108.552 41.3287 108.344 41.086C108.136 40.8433 107.911 40.6527 107.668 40.514V46H103.69Z" fill="white"/>
<path d="M13.702 27.54H17.784V46H14.014L5.824 34.534V46H1.742V27.54H5.512L13.702 39.006V27.54ZM27.5854 46.26C26.1121 46.26 24.8381 45.9913 23.7634 45.454C22.6887 44.8993 21.8567 44.128 21.2674 43.14C20.6781 42.1347 20.3834 40.9473 20.3834 39.578C20.3834 38.1913 20.6781 36.9693 21.2674 35.912C21.8741 34.8547 22.6801 34.0313 23.6854 33.442C24.7081 32.8527 25.8607 32.558 27.1434 32.558C28.5994 32.558 29.7867 32.8873 30.7054 33.546C31.6241 34.2047 32.2567 35.1407 32.6034 36.354C32.9674 37.55 33.0454 38.9453 32.8374 40.54H24.4394C24.5434 41.1987 24.8901 41.7533 25.4794 42.204C26.0687 42.6373 26.8747 42.854 27.8974 42.854C28.3654 42.854 28.8594 42.7587 29.3794 42.568C29.8994 42.36 30.3414 42.0567 30.7054 41.658L32.9154 43.998C32.3434 44.6913 31.6327 45.246 30.7834 45.662C29.9514 46.0607 28.8854 46.26 27.5854 46.26ZM27.2214 35.444C26.5281 35.444 25.9387 35.652 25.4534 36.068C24.9854 36.484 24.6734 37.0647 24.5174 37.81H29.4834C29.5007 36.9953 29.3014 36.3973 28.8854 36.016C28.4867 35.6347 27.9321 35.444 27.2214 35.444ZM35.2781 51.2V32.766H39.2821L39.1521 34.794C40.1055 33.3033 41.5181 32.558 43.3901 32.558C44.5688 32.558 45.5741 32.8267 46.4061 33.364C47.2381 33.9013 47.8708 34.6467 48.3041 35.6C48.7375 36.5533 48.9541 37.6453 48.9541 38.876C48.9541 40.3493 48.6508 41.6407 48.0441 42.75C47.4375 43.8593 46.6228 44.726 45.6001 45.35C44.5775 45.9567 43.4335 46.26 42.1681 46.26C41.5615 46.26 41.0068 46.1733 40.5041 46C40.0188 45.8267 39.5855 45.584 39.2041 45.272L39.2561 46V51.2H35.2781ZM41.7521 42.802C42.7055 42.802 43.4595 42.4467 44.0141 41.736C44.5688 41.008 44.8461 40.0893 44.8461 38.98C44.8461 38.044 44.6295 37.316 44.1961 36.796C43.7801 36.276 43.2081 36.016 42.4801 36.016C41.5961 36.016 40.8335 36.38 40.1921 37.108C39.5681 37.836 39.2561 38.7893 39.2561 39.968C39.2561 40.8347 39.4815 41.528 39.9321 42.048C40.3828 42.5507 40.9895 42.802 41.7521 42.802Z" fill="#4CB44C"/>
<path d="M40.6316 0L28 22H36.7018L45.1228 7.79747L53.5439 22H62.5263L66.3158 15.3165L70.386 22H79.3684L92 0H83.0175L74.5965 13.9241L70.9474 7.51899L75.1579 0H66.1754L58.0351 14.2025L49.614 0H40.6316Z" fill="white"/>
</svg>
