<svg width="75" height="45" viewBox="0 0 75 45" fill="none" xmlns="http://www.w3.org/2000/svg">
<path d="M45.2925 32.6015H47.784L44.8965 41H41.745L40.4085 36.149L38.7915 41H35.6565L33.033 32.6015H35.64L37.3395 38.591L39.27 32.6015H41.679L43.3455 38.6405L45.2925 32.6015ZM52.4067 32.4695C53.7157 32.4695 54.7387 32.8435 55.4757 33.5915C56.2237 34.3395 56.5977 35.3515 56.5977 36.6275C56.5977 37.4965 56.4107 38.272 56.0367 38.954C55.6627 39.636 55.1347 40.175 54.4527 40.571C53.7707 40.967 52.9677 41.165 52.0437 41.165C50.7457 41.165 49.7227 40.791 48.9747 40.043C48.2377 39.295 47.8692 38.2885 47.8692 37.0235C47.8692 36.1435 48.0562 35.3625 48.4302 34.6805C48.8042 33.9985 49.3322 33.4595 50.0142 33.0635C50.6962 32.6675 51.4937 32.4695 52.4067 32.4695ZM52.1592 38.9705C52.7202 38.9705 53.1657 38.7615 53.4957 38.3435C53.8367 37.9145 54.0072 37.3425 54.0072 36.6275C54.0072 36.0115 53.8587 35.533 53.5617 35.192C53.2647 34.84 52.8577 34.664 52.3407 34.664C51.7687 34.664 51.3122 34.8785 50.9712 35.3075C50.6412 35.7255 50.4762 36.292 50.4762 37.007C50.4762 37.623 50.6192 38.107 50.9052 38.459C51.2022 38.8 51.6202 38.9705 52.1592 38.9705ZM63.8858 35.0435C63.6658 34.9555 63.3688 34.9115 62.9948 34.9115C62.4228 34.9115 61.9663 35.115 61.6253 35.522C61.2843 35.918 61.0368 36.567 60.8828 37.469C60.7288 38.36 60.6518 39.537 60.6518 41H58.1438V35.555L58.1108 32.6015H60.6353L60.5198 34.697C60.8168 33.894 61.2128 33.322 61.7078 32.981C62.2138 32.64 62.7528 32.4695 63.3248 32.4695C63.5118 32.4695 63.6823 32.4805 63.8363 32.5025C64.0013 32.5245 64.1663 32.563 64.3313 32.618L63.8858 35.0435ZM65.1688 41V28.79H67.6933V35.951L70.8118 32.6015H73.8148L70.0198 36.6605C70.2728 36.8145 70.4818 37.018 70.6468 37.271L71.2903 38.2775C71.6313 38.8055 72.1098 39.0695 72.7258 39.0695C73.0558 39.0695 73.3693 38.987 73.6663 38.822L74.2108 40.6865C73.9028 40.8625 73.5838 40.989 73.2538 41.066C72.9348 41.143 72.5938 41.176 72.2308 41.165C71.5158 41.154 70.9218 41.022 70.4488 40.769C69.9868 40.516 69.5688 40.087 69.1948 39.482L68.5513 38.4755C68.3973 38.2335 68.2543 38.0355 68.1223 37.8815C67.9903 37.7275 67.8473 37.6065 67.6933 37.5185V41H65.1688Z" fill="black"/>
<path d="M8.6955 29.285H11.286V41H8.8935L3.696 33.7235V41H1.1055V29.285H3.498L8.6955 36.5615V29.285ZM17.5061 41.165C16.5711 41.165 15.7626 40.9945 15.0806 40.6535C14.3986 40.3015 13.8706 39.812 13.4966 39.185C13.1226 38.547 12.9356 37.7935 12.9356 36.9245C12.9356 36.0445 13.1226 35.269 13.4966 34.598C13.8816 33.927 14.3931 33.4045 15.0311 33.0305C15.6801 32.6565 16.4116 32.4695 17.2256 32.4695C18.1496 32.4695 18.9031 32.6785 19.4861 33.0965C20.0691 33.5145 20.4706 34.1085 20.6906 34.8785C20.9216 35.6375 20.9711 36.523 20.8391 37.535H15.5096C15.5756 37.953 15.7956 38.305 16.1696 38.591C16.5436 38.866 17.0551 39.0035 17.7041 39.0035C18.0011 39.0035 18.3146 38.943 18.6446 38.822C18.9746 38.69 19.2551 38.4975 19.4861 38.2445L20.8886 39.7295C20.5256 40.1695 20.0746 40.5215 19.5356 40.7855C19.0076 41.0385 18.3311 41.165 17.5061 41.165ZM17.2751 34.301C16.8351 34.301 16.4611 34.433 16.1531 34.697C15.8561 34.961 15.6581 35.3295 15.5591 35.8025H18.7106C18.7216 35.2855 18.5951 34.906 18.3311 34.664C18.0781 34.422 17.7261 34.301 17.2751 34.301ZM22.3881 44.3V32.6015H24.9291L24.8466 33.8885C25.4516 32.9425 26.3481 32.4695 27.5361 32.4695C28.2841 32.4695 28.9221 32.64 29.4501 32.981C29.9781 33.322 30.3796 33.795 30.6546 34.4C30.9296 35.005 31.0671 35.698 31.0671 36.479C31.0671 37.414 30.8746 38.2335 30.4896 38.9375C30.1046 39.6415 29.5876 40.1915 28.9386 40.5875C28.2896 40.9725 27.5636 41.165 26.7606 41.165C26.3756 41.165 26.0236 41.11 25.7046 41C25.3966 40.89 25.1216 40.736 24.8796 40.538L24.9126 41V44.3H22.3881ZM26.4966 38.9705C27.1016 38.9705 27.5801 38.745 27.9321 38.294C28.2841 37.832 28.4601 37.249 28.4601 36.545C28.4601 35.951 28.3226 35.489 28.0476 35.159C27.7836 34.829 27.4206 34.664 26.9586 34.664C26.3976 34.664 25.9136 34.895 25.5066 35.357C25.1106 35.819 24.9126 36.424 24.9126 37.172C24.9126 37.722 25.0556 38.162 25.3416 38.492C25.6276 38.811 26.0126 38.9705 26.4966 38.9705Z" fill="#009400"/>
<path d="M18.4342 0L6 21H14.5658L22.8553 7.44304L31.1447 21H39.9868L43.7171 14.6203L47.7237 21H56.5658L69 0H60.1579L51.8684 13.2911L48.2763 7.17722L52.4211 0H43.5789L35.5658 13.557L27.2763 0H18.4342Z" fill="black"/>
</svg>
